<svg width="20" height="26" viewBox="0 0 20 26" fill="none" xmlns="http://www.w3.org/2000/svg">
<path d="M1.56423 23.375H18.4392C18.6735 23.3746 18.8994 23.4619 19.0726 23.6197C19.2457 23.7775 19.3535 23.9945 19.3746 24.2278C19.3958 24.4611 19.3288 24.6939 19.1869 24.8803C19.045 25.0667 18.8385 25.1933 18.608 25.235L18.4392 25.25H1.56423C1.32995 25.2504 1.10401 25.1631 0.930885 25.0053C0.757761 24.8475 0.650004 24.6305 0.628837 24.3972C0.607669 24.1639 0.674623 23.9311 0.816515 23.7447C0.958406 23.5583 1.16495 23.4317 1.39548 23.39L1.56423 23.375H18.4392H1.56423ZM9.83298 0.89L10.0017 0.875C10.2212 0.874927 10.4336 0.951821 10.6022 1.09229C10.7708 1.23276 10.8847 1.42791 10.9242 1.64375L10.9392 1.8125V18.2975L15.968 13.2706C16.1231 13.1153 16.3278 13.0194 16.5464 12.9995C16.765 12.9796 16.9836 13.0371 17.1642 13.1619L17.2955 13.2706C17.4505 13.426 17.5461 13.6308 17.5656 13.8494C17.5852 14.068 17.5274 14.2865 17.4024 14.4669L17.2936 14.5962L10.6655 21.2262C10.5101 21.3813 10.3053 21.4769 10.0867 21.4964C9.86812 21.5159 9.6496 21.4581 9.46923 21.3331L9.33798 21.2262L2.70985 14.5962C2.54376 14.4309 2.44562 14.2093 2.43479 13.9752C2.42395 13.7411 2.5012 13.5114 2.65131 13.3314C2.80142 13.1514 3.0135 13.0342 3.24576 13.0028C3.47802 12.9714 3.71361 13.0282 3.9061 13.1619L4.03548 13.2706L9.06423 18.2975V1.8125C9.06415 1.59308 9.14105 1.38058 9.28152 1.21201C9.42199 1.04345 9.61714 0.929496 9.83298 0.89L10.0017 0.875L9.83298 0.89Z" fill="#5B9946"/>
</svg>
