<svg width="21" height="15" viewBox="0 0 21 15" fill="none" xmlns="http://www.w3.org/2000/svg">
<path d="M19.8878 0.536C19.8029 0.374445 19.6755 0.239136 19.5194 0.144676C19.3632 0.0502152 19.1843 0.000190289 19.0018 0H1.00177C0.819611 0.000752409 0.641106 0.0511466 0.485448 0.145763C0.329791 0.240379 0.202871 0.375638 0.118336 0.536993C0.0338024 0.698348 -0.00514691 0.879695 0.00567705 1.06153C0.016501 1.24337 0.0766887 1.41881 0.179768 1.569L9.17977 14.569C9.27151 14.7022 9.39426 14.8112 9.53746 14.8864C9.68065 14.9617 9.84 15.001 10.0018 15.001C10.1635 15.001 10.3229 14.9617 10.4661 14.8864C10.6093 14.8112 10.732 14.7022 10.8238 14.569L19.8238 1.569C19.9279 1.41912 19.9889 1.24357 20.0001 1.06144C20.0114 0.879317 19.9726 0.697581 19.8878 0.536ZM10.0018 12.243L2.90977 2H17.0938L10.0018 12.243Z" fill="white"/>
</svg>
