<svg width="31" height="31" viewBox="0 0 31 31" fill="none" xmlns="http://www.w3.org/2000/svg">
<path d="M15.5 29.0625C11.903 29.0625 8.45333 27.6336 5.90986 25.0901C3.3664 22.5467 1.9375 19.097 1.9375 15.5C1.9375 11.903 3.3664 8.45333 5.90986 5.90986C8.45333 3.3664 11.903 1.9375 15.5 1.9375C19.097 1.9375 22.5467 3.3664 25.0901 5.90986C27.6336 8.45333 29.0625 11.903 29.0625 15.5C29.0625 19.097 27.6336 22.5467 25.0901 25.0901C22.5467 27.6336 19.097 29.0625 15.5 29.0625ZM15.5 31C19.6109 31 23.5533 29.367 26.4602 26.4602C29.367 23.5533 31 19.6109 31 15.5C31 11.3891 29.367 7.44666 26.4602 4.53984C23.5533 1.63303 19.6109 0 15.5 0C11.3891 0 7.44666 1.63303 4.53984 4.53984C1.63303 7.44666 0 11.3891 0 15.5C0 19.6109 1.63303 23.5533 4.53984 26.4602C7.44666 29.367 11.3891 31 15.5 31Z" fill="#A8CE39"/>
<path d="M21.2549 9.62937C21.2411 9.64274 21.2282 9.65698 21.2162 9.67199L14.4872 18.2454L10.432 14.1883C10.1566 13.9316 9.79223 13.7919 9.41577 13.7985C9.03931 13.8052 8.68013 13.9577 8.41389 14.2239C8.14765 14.4902 7.99515 14.8493 7.98851 15.2258C7.98187 15.6023 8.1216 15.9666 8.37828 16.2421L13.5049 21.3706C13.643 21.5085 13.8075 21.6171 13.9885 21.69C14.1695 21.7629 14.3633 21.7987 14.5584 21.795C14.7535 21.7914 14.9459 21.7486 15.1241 21.669C15.3022 21.5894 15.4626 21.4747 15.5955 21.3319L23.33 11.6637C23.5933 11.3873 23.7373 11.0184 23.7308 10.6366C23.7243 10.2549 23.5678 9.89103 23.2952 9.62374C23.0226 9.35645 22.6557 9.2072 22.2739 9.20826C21.8921 9.20931 21.5261 9.36058 21.2549 9.62937Z" fill="#A8CE39"/>
</svg>
