<svg width="18" height="18" viewBox="0 0 18 18" fill="none" xmlns="http://www.w3.org/2000/svg">
<path d="M13.8665 17.7201C13.6983 17.7196 13.5307 17.7012 13.3665 17.6651C10.2398 17.0183 7.35926 15.5018 5.05645 13.2901C2.80279 11.0735 1.23975 8.2514 0.556455 5.1651C0.475886 4.78046 0.49566 4.38155 0.613877 4.00676C0.732094 3.63197 0.944774 3.29391 1.23145 3.0251L3.23145 1.1001C3.33361 1.0035 3.45498 0.929517 3.58766 0.882993C3.72034 0.836469 3.86134 0.818447 4.00145 0.830102C4.14674 0.845258 4.28694 0.892059 4.41219 0.967211C4.53744 1.04236 4.64471 1.14404 4.72645 1.2651L7.22645 4.9601C7.32021 5.10347 7.36546 5.27315 7.35556 5.44417C7.34566 5.61519 7.28113 5.77851 7.17145 5.9101L5.91645 7.4101C6.41628 8.51633 7.12413 9.51614 8.00145 10.3551C8.8731 11.2245 9.90337 11.9187 11.0365 12.4001L12.5915 11.1651C12.7221 11.0619 12.881 11.0009 13.0471 10.9901C13.2132 10.9794 13.3787 11.0195 13.5215 11.1051L17.2965 13.5451C17.426 13.6225 17.5364 13.7281 17.6193 13.8542C17.7022 13.9802 17.7555 14.1234 17.7752 14.273C17.7949 14.4226 17.7806 14.5747 17.7332 14.7179C17.6857 14.8612 17.6065 14.9918 17.5015 15.1001L15.5515 17.0301C15.33 17.2505 15.067 17.425 14.7779 17.5434C14.4887 17.6618 14.1789 17.7219 13.8665 17.7201ZM3.92145 1.8201L1.92145 3.7451C1.76018 3.89538 1.6408 4.08504 1.57505 4.29544C1.5093 4.50585 1.49944 4.72974 1.54645 4.9451C2.18182 7.84117 3.64231 10.4913 5.75145 12.5751C7.91855 14.6559 10.6293 16.0823 13.5715 16.6901C13.7942 16.7367 14.0249 16.7272 14.2431 16.6627C14.4613 16.5981 14.66 16.4804 14.8215 16.3201L16.7715 14.3901L13.1265 12.0351L11.4565 13.3651C11.3925 13.4157 11.3172 13.4499 11.237 13.4647C11.1568 13.4795 11.0742 13.4745 10.9965 13.4501C9.60981 12.9392 8.35318 12.1282 7.31645 11.0751C6.24413 10.0737 5.41177 8.84311 4.88145 7.4751C4.85902 7.39228 4.85827 7.30509 4.87929 7.2219C4.90031 7.13871 4.94238 7.06233 5.00145 7.0001L6.35145 5.3851L3.92145 1.8201Z" fill="black"/>
</svg>
