<svg width="16" height="20" viewBox="0 0 16 20" fill="none" xmlns="http://www.w3.org/2000/svg">
<path d="M8.07156 -0.00722504C3.97187 -0.00722504 0.5 3.48434 0.5 7.62059C0.5 11.9518 4.52406 16.3812 7.23094 19.4943C7.24125 19.5068 7.67877 19.9928 8.21781 19.9928H8.26565C8.80471 19.9928 9.23908 19.5068 9.25 19.4943C11.7903 16.574 15.5 11.759 15.5 7.62059C15.5 3.48434 12.7919 -0.00722504 8.07156 -0.00722504ZM8.32219 18.6559C8.30031 18.6778 8.26842 18.7022 8.24029 18.7225C8.21154 18.7028 8.18029 18.6778 8.15719 18.6559L7.83029 18.28C5.26406 15.3359 1.75 11.3044 1.75 7.62059C1.75 4.1634 4.645 1.24246 8.07156 1.24246C12.3397 1.24246 14.25 4.44559 14.25 7.62059C14.25 10.4172 12.2553 14.1303 8.32219 18.6559ZM8.02186 3.77746C5.95092 3.77746 4.27186 5.45652 4.27186 7.52746C4.27186 9.5984 5.95092 11.2775 8.02186 11.2775C10.0928 11.2775 11.7719 9.5984 11.7719 7.52746C11.7719 5.45652 10.0928 3.77746 8.02186 3.77746ZM8.02186 10.0275C6.64342 10.0275 5.49309 8.87871 5.49309 7.49996C5.49309 6.12153 6.61465 4.99996 7.99309 4.99996C9.37246 4.99996 10.4931 6.12153 10.4931 7.49996C10.4937 8.87871 9.40123 10.0275 8.02186 10.0275Z" fill="black"/>
</svg>
