<svg width="92" height="76" viewBox="0 0 92 76" fill="none" xmlns="http://www.w3.org/2000/svg">
<path opacity="0.05" d="M72.6097 75.9375C64.9355 75.9375 59.1306 72.7629 55.1952 66.4137C51.85 61.0566 50.1774 54.5089 50.1774 46.7708C50.1774 36.8502 52.6371 27.9216 57.5564 19.9851C62.6726 12.0486 70.3468 5.69941 80.579 0.9375L83.2355 6.29465C77.1355 8.87402 71.8226 12.9415 67.2968 18.497C62.9677 24.0526 60.8032 29.7073 60.8032 35.4613C60.8032 37.8423 61.0984 39.9256 61.6887 41.7113C64.8371 39.132 68.4774 37.8423 72.6097 37.8423C77.9226 37.8423 82.35 39.628 85.8919 43.1994C89.6306 46.5724 91.5 51.1359 91.5 56.8899C91.5 62.247 89.6306 66.8105 85.8919 70.5803C82.35 74.1518 77.9226 75.9375 72.6097 75.9375ZM22.4323 75.9375C14.7581 75.9375 8.95323 72.7629 5.01774 66.4137C1.67258 61.0566 0 54.5089 0 46.7708C0 36.8502 2.45968 27.9216 7.37903 19.9851C12.4952 12.0486 20.1694 5.69941 30.4016 0.9375L33.0581 6.29465C26.9581 8.87402 21.6452 12.9415 17.1194 18.497C12.7903 24.0526 10.6258 29.7073 10.6258 35.4613C10.6258 37.8423 10.921 39.9256 11.5113 41.7113C14.6597 39.132 18.3 37.8423 22.4323 37.8423C27.7452 37.8423 32.1726 39.628 35.7145 43.1994C39.4532 46.5724 41.3226 51.1359 41.3226 56.8899C41.3226 62.247 39.4532 66.8105 35.7145 70.5803C32.1726 74.1518 27.7452 75.9375 22.4323 75.9375Z" fill="#141414"/>
</svg>
