<svg width="21" height="20" viewBox="0 0 21 20" fill="none" xmlns="http://www.w3.org/2000/svg">
<path d="M7.35562 4.48165H9.43035V14.0915C9.43035 14.2165 9.53142 14.3187 9.65495 14.3187H11.3394C11.463 14.3187 11.564 14.2165 11.564 14.0915V4.48165H13.6444C13.8325 4.48165 13.9364 4.26292 13.8213 4.1152L10.6769 0.0871928C10.6559 0.0600313 10.629 0.0380648 10.5984 0.0229579C10.5677 0.00785099 10.5341 0 10.5 0C10.4659 0 10.4323 0.00785099 10.4016 0.0229579C10.371 0.0380648 10.3441 0.0600313 10.3231 0.0871928L7.17874 4.11236C7.06364 4.26292 7.16751 4.48165 7.35562 4.48165ZM20.7754 13.2393H19.0909C18.9674 13.2393 18.8663 13.3416 18.8663 13.4666V17.8411H2.13369V13.4666C2.13369 13.3416 2.03262 13.2393 1.90909 13.2393H0.224599C0.10107 13.2393 0 13.3416 0 13.4666V19.091C0 19.5938 0.401471 20 0.898396 20H20.1016C20.5985 20 21 19.5938 21 19.091V13.4666C21 13.3416 20.8989 13.2393 20.7754 13.2393Z" fill="black"/>
</svg>
